<svg width="51" height="38" viewBox="0 0 51 38" fill="none" xmlns="http://www.w3.org/2000/svg">
<path id="Arrow 1" d="M3 16.5C1.61929 16.5 0.5 17.6193 0.5 19C0.5 20.3807 1.61929 21.5 3 21.5L3 16.5ZM49.7678 20.7678C50.7441 19.7915 50.7441 18.2085 49.7678 17.2322L33.8579 1.32233C32.8816 0.346022 31.2986 0.346022 30.3223 1.32233C29.346 2.29864 29.346 3.88156 30.3223 4.85787L44.4645 19L30.3223 33.1421C29.346 34.1184 29.346 35.7014 30.3223 36.6777C31.2986 37.654 32.8816 37.654 33.8579 36.6777L49.7678 20.7678ZM3 21.5L48 21.5L48 16.5L3 16.5L3 21.5Z" fill="#FFFCF2"/>
</svg>
